<svg xmlns="http://www.w3.org/2000/svg" width="36" height="36" viewBox="0 0 36 36">
  <g id="additional" transform="translate(-475 -373)">
    <rect id="矩形_1582" data-name="矩形 1582" width="36" height="36" transform="translate(475 373)" fill="none"/>
    <g id="icon_attached" transform="translate(191 219.399)">
      <path id="路径_362" data-name="路径 362" d="M16.445,1.555A5.745,5.745,0,0,0,12.6,0,5.591,5.591,0,0,0,8.755,1.555a1.23,1.23,0,0,0-.327.9,1.716,1.716,0,0,0,.327.9,1.23,1.23,0,0,0,.9.327h0a1.716,1.716,0,0,0,.9-.327,3.063,3.063,0,0,1,4.255,0A3.45,3.45,0,0,1,15.545,5.4a2.971,2.971,0,0,1-.9,2.127L7.527,14.645a3.063,3.063,0,0,1-4.255,0A3.06,3.06,0,0,1,2.455,12.6a2.971,2.971,0,0,1,.9-2.127L6.382,7.445a.89.89,0,0,1,1.227,0,1,1,0,0,1,0,1.309L5.4,10.964a1.23,1.23,0,0,0-.327.9,1.716,1.716,0,0,0,.327.9,1.356,1.356,0,0,0,1.718,0l2.209-2.209a3.358,3.358,0,0,0,0-4.745,3.277,3.277,0,0,0-2.373-.982,2.906,2.906,0,0,0-2.291.9L1.636,8.755A5.191,5.191,0,0,0,0,12.6a5.591,5.591,0,0,0,1.555,3.845A5.745,5.745,0,0,0,5.4,18a5.591,5.591,0,0,0,3.845-1.555l7.118-7.118a5.247,5.247,0,0,0,1.555-3.845A5.36,5.36,0,0,0,16.445,1.555Z" transform="translate(293 162.601)" fill="#333"/>
    </g>
  </g>
</svg>
