<svg xmlns="http://www.w3.org/2000/svg" width="36" height="36" viewBox="0 0 36 36">
  <g id="compare" transform="translate(-448 -427)">
    <rect id="矩形_1583" data-name="矩形 1583" width="36" height="36" transform="translate(448 427)" fill="none"/>
    <path id="compare-2" data-name="compare" d="M7.435,19.594l-6.8-6.175a1.511,1.511,0,0,1-.172-.186,1.386,1.386,0,0,1,.923-2.42H18.614a1.386,1.386,0,0,1,0,2.773H5.136l4.458,4.048a1.3,1.3,0,0,1,0,1.96,1.637,1.637,0,0,1-2.159,0ZM1.386,9.187a1.386,1.386,0,0,1,0-2.773H14.864L10.406,2.366a1.3,1.3,0,0,1,0-1.96,1.637,1.637,0,0,1,2.159,0l6.8,6.175a1.421,1.421,0,0,1,.174.188,1.387,1.387,0,0,1-.926,2.418Z" transform="translate(456 435)" fill="#333"/>
  </g>
</svg>
