<svg xmlns="http://www.w3.org/2000/svg" width="36" height="36" viewBox="0 0 36 36">
  <g id="record" transform="translate(-448 -427)" opacity="0.6">
    <rect id="矩形_1583" data-name="矩形 1583" width="36" height="36" transform="translate(448 427)" fill="none"/>
    <g id="icon_time-countdown" transform="translate(203 242)">
      <path id="time-countdown" d="M-6987-1555a6.957,6.957,0,0,1,7-7,6.845,6.845,0,0,1,4.2,1.4l.9-.9-.8-.8a.966.966,0,0,1,0-1.4.968.968,0,0,1,1.4,0l3,3a.967.967,0,0,1,0,1.4.911.911,0,0,1-.7.3.912.912,0,0,1-.7-.3l-.8-.8-.9.9a6.847,6.847,0,0,1,1.4,4.2,6.957,6.957,0,0,1-7,7A6.957,6.957,0,0,1-6987-1555Zm2,0a4.952,4.952,0,0,0,5,5,4.953,4.953,0,0,0,5-5,4.951,4.951,0,0,0-5-5A4.951,4.951,0,0,0-6985-1555Zm4,1v-4h2v2h2v2Z" transform="translate(7242 1758.999)" fill="#333"/>
    </g>
  </g>
</svg>
