<svg xmlns="http://www.w3.org/2000/svg" width="18" height="18" viewBox="0 0 18 18">
  <g id="icon_search" opacity="0.7">
    <path id="icon_search-2" data-name="icon_search" d="M14.287,12.634a7.624,7.624,0,0,0,1.575-4.7A7.9,7.9,0,0,0,7.987,0,7.993,7.993,0,0,0,0,7.938a7.993,7.993,0,0,0,7.987,7.938,7.5,7.5,0,0,0,4.725-1.565l3.375,3.354a1.092,1.092,0,0,0,1.575,0,1.076,1.076,0,0,0,0-1.565Zm-6.3.894A5.649,5.649,0,0,1,2.25,7.938a5.738,5.738,0,0,1,11.475,0A5.649,5.649,0,0,1,7.987,13.528Z" fill="#fff"/>
  </g>
</svg>
