<svg xmlns="http://www.w3.org/2000/svg" width="32" height="32" viewBox="0 0 32 32">
  <path id="路径_108" data-name="路径 108" d="M26.6,10.4l2.2-4.2L26,3.4,21.8,5.6a7.165,7.165,0,0,0-2.2-.8L18,0H14L12.4,4.6a8.358,8.358,0,0,0-2,.8L6.2,3.2l-3,3,2.2,4.2a8.358,8.358,0,0,0-.8,2L0,14v4l4.6,1.6c.2.8.6,1.4.8,2.2L3.2,26,6,28.8l4.2-2.2a7.165,7.165,0,0,0,2.2.8L14,32h4l1.6-4.6c.8-.2,1.4-.6,2.2-.8L26,28.8,28.8,26l-2.2-4.2a7.165,7.165,0,0,0,.8-2.2L32,18V14l-4.6-1.6A8.358,8.358,0,0,0,26.6,10.4ZM16,22a5.893,5.893,0,0,1-6-6,5.893,5.893,0,0,1,6-6,5.893,5.893,0,0,1,6,6A5.893,5.893,0,0,1,16,22Z" fill="#fff" opacity="0.9"/>
</svg>
